<?xml version="1.0" ?><svg contentScriptType="text/ecmascript" contentStyleType="text/css" enable-background="new 0 0 136.333 123" height="70.96200561523438px" id="Layer_1" preserveAspectRatio="xMidYMid meet" version="1.0" viewBox="25.93400001525879 15.404003143310547 70.96200561523438 70.96200561523438" width="70.96200561523438px" xml:space="preserve" xmlns="http://www.w3.org/2000/svg" xmlns:xlink="http://www.w3.org/1999/xlink" zoomAndPan="magnify"><g><path d="M90.09,54.584c-1.566-2.001-9.015-9.555-5.801-17.751c0,0-7.606,5.946-4.751,14.56   c-1.318-1.916-13.833-8.452-12.791-32.56c0,0-0.79,0.78-2,2.149v61.836c6.901-0.193,12.097-2.271,12.097-2.271   S96.896,70.473,90.09,54.584z" fill="#D2623E"/><path d="M51.839,48.202c0,0,1.979,15.958,8.575,18.514c0,0-13.191-3.193-15.83-19.154   c-0.658,1.916-18.65,19.275,6.546,32.664c4.649,2.139,9.445,2.711,13.617,2.594V20.983C60.686,25.581,51.839,36.889,51.839,48.202z   " fill="#EC6C51"/></g></svg>